<svg width="753" height="753" viewBox="0 0 753 753" fill="none" xmlns="http://www.w3.org/2000/svg">
<rect width="753" height="753" fill="#3D85FF"/>
<path d="M124.516 473.92C99.1906 452.427 94.7105 415.772 114.526 392.18L366.006 92.7725C385.821 69.1808 422.522 67.4745 447.848 88.9676L493.764 127.935C500.077 133.293 500.874 142.44 498.295 149.753C492.405 166.275 497.669 186.196 512.735 198.982C527.802 211.768 548.222 213.645 563.438 205.038C570.178 201.256 579.282 200.512 585.596 205.87L631.512 244.838C656.837 266.331 661.318 302.986 641.502 326.578L390.022 625.985C370.207 649.577 333.506 651.283 308.18 629.79L262.264 590.822C255.951 585.464 255.155 576.318 257.733 569.005C263.623 552.483 258.359 532.562 243.293 519.776C228.226 506.989 207.806 505.113 192.59 513.72C185.85 517.501 176.746 518.245 170.432 512.887L124.516 473.92Z" fill="white"/>
<rect x="31" y="328" width="139" height="131" fill="#3D85FF"/>
<mask id="path-3-outside-1_1001_80" maskUnits="userSpaceOnUse" x="47" y="100" width="366" height="541" fill="black">
<rect fill="white" x="47" y="100" width="366" height="541"/>
<path d="M203.5 138H273L269 233H207.5L203.5 138ZM207.5 514H268.5L272.5 603H203.5L207.5 514ZM297.5 306C292.5 296.333 287 288.167 281 281.5C275 274.5 268.5 269.333 261.5 266C254.833 262.667 247.667 261 240 261C232 261 225.5 262.333 220.5 265C215.5 267.333 211.833 270.5 209.5 274.5C207.167 278.5 206 283 206 288C206 297 209.667 304.167 217 309.5C224.333 314.833 234 319.5 246 323.5C258.333 327.5 271.5 332.167 285.5 337.5C298.5 342.167 310.333 347.833 321 354.5C331.667 360.833 341 368.5 349 377.5C357.333 386.167 363.667 396.333 368 408C372.667 419.667 375 433 375 448C375 470.333 369 489.333 357 505C345.333 520.333 328.833 532 307.5 540C286.167 548 261.167 552 232.5 552C210.833 552 190.167 548 170.5 540C150.833 531.667 133.5 521 118.5 508C103.833 495 92.8333 480.833 85.5 465.5L152 418C160.333 431.333 168.667 442.333 177 451C185.333 459.667 194.167 466.167 203.5 470.5C212.833 474.5 223.333 476.5 235 476.5C243.667 476.5 250.667 475.5 256 473.5C261.667 471.167 265.833 468 268.5 464C271.167 459.667 272.5 454.333 272.5 448C272.5 440.333 269.5 434.167 263.5 429.5C257.833 424.5 249.833 419.833 239.5 415.5C229.167 411.167 217 406.333 203 401C194.333 397.667 184.5 393.167 173.5 387.5C162.5 381.833 151.833 374.667 141.5 366C131.5 357.333 123.167 346.667 116.5 334C109.833 321.333 106.5 306.333 106.5 289C106.5 271.667 112 255.667 123 241C134 226.333 149.167 214.5 168.5 205.5C188.167 196.5 210.833 192 236.5 192C262.5 192 283.833 195.5 300.5 202.5C317.167 209.167 331 218.167 342 229.5C353 240.5 362.333 252.5 370 265.5L297.5 306Z"/>
</mask>
<path d="M203.5 138H273L269 233H207.5L203.5 138ZM207.5 514H268.5L272.5 603H203.5L207.5 514ZM297.5 306C292.5 296.333 287 288.167 281 281.5C275 274.5 268.5 269.333 261.5 266C254.833 262.667 247.667 261 240 261C232 261 225.5 262.333 220.5 265C215.5 267.333 211.833 270.5 209.5 274.5C207.167 278.5 206 283 206 288C206 297 209.667 304.167 217 309.5C224.333 314.833 234 319.5 246 323.5C258.333 327.5 271.5 332.167 285.5 337.5C298.5 342.167 310.333 347.833 321 354.5C331.667 360.833 341 368.5 349 377.5C357.333 386.167 363.667 396.333 368 408C372.667 419.667 375 433 375 448C375 470.333 369 489.333 357 505C345.333 520.333 328.833 532 307.5 540C286.167 548 261.167 552 232.5 552C210.833 552 190.167 548 170.5 540C150.833 531.667 133.5 521 118.5 508C103.833 495 92.8333 480.833 85.5 465.5L152 418C160.333 431.333 168.667 442.333 177 451C185.333 459.667 194.167 466.167 203.5 470.5C212.833 474.5 223.333 476.5 235 476.5C243.667 476.5 250.667 475.5 256 473.5C261.667 471.167 265.833 468 268.5 464C271.167 459.667 272.5 454.333 272.5 448C272.5 440.333 269.5 434.167 263.5 429.5C257.833 424.5 249.833 419.833 239.5 415.5C229.167 411.167 217 406.333 203 401C194.333 397.667 184.5 393.167 173.5 387.5C162.5 381.833 151.833 374.667 141.5 366C131.5 357.333 123.167 346.667 116.5 334C109.833 321.333 106.5 306.333 106.5 289C106.5 271.667 112 255.667 123 241C134 226.333 149.167 214.5 168.5 205.5C188.167 196.5 210.833 192 236.5 192C262.5 192 283.833 195.5 300.5 202.5C317.167 209.167 331 218.167 342 229.5C353 240.5 362.333 252.5 370 265.5L297.5 306Z" fill="white"/>
<path d="M203.5 138V100C193.144 100 183.237 104.226 176.071 111.701C168.904 119.176 165.098 129.252 165.534 139.599L203.5 138ZM273 138L310.966 139.599C311.402 129.252 307.596 119.176 300.429 111.701C293.263 104.226 283.356 100 273 100V138ZM269 233V271C289.365 271 306.11 254.946 306.966 234.599L269 233ZM207.5 233L169.534 234.599C170.39 254.946 187.135 271 207.5 271V233ZM207.5 514V476C187.177 476 170.451 491.991 169.538 512.294L207.5 514ZM268.5 514L306.462 512.294C305.549 491.991 288.823 476 268.5 476V514ZM272.5 603V641C282.874 641 292.798 636.759 299.967 629.26C307.136 621.761 310.927 611.658 310.462 601.294L272.5 603ZM203.5 603L165.538 601.294C165.073 611.658 168.864 621.761 176.033 629.26C183.202 636.759 193.126 641 203.5 641V603ZM297.5 306L263.748 323.458C268.475 332.598 276.707 339.429 286.561 342.391C296.415 345.354 307.049 344.193 316.032 339.175L297.5 306ZM281 281.5L252.148 306.23C252.348 306.463 252.55 306.693 252.755 306.921L281 281.5ZM261.5 266L244.506 299.988C244.724 300.097 244.943 300.204 245.163 300.309L261.5 266ZM220.5 265L236.57 299.435C237.182 299.149 237.786 298.847 238.382 298.529L220.5 265ZM209.5 274.5L242.324 293.647L242.324 293.647L209.5 274.5ZM217 309.5L239.351 278.768L239.351 278.768L217 309.5ZM246 323.5L233.983 359.55C234.081 359.583 234.179 359.615 234.277 359.646L246 323.5ZM285.5 337.5L271.972 373.011C272.201 373.098 272.431 373.183 272.661 373.265L285.5 337.5ZM321 354.5L300.86 386.724C301.105 386.877 301.351 387.027 301.6 387.174L321 354.5ZM349 377.5L320.598 402.746C320.928 403.116 321.265 403.481 321.608 403.838L349 377.5ZM368 408L332.378 421.231C332.488 421.526 332.601 421.82 332.718 422.113L368 408ZM357 505L326.833 481.893C326.808 481.925 326.783 481.958 326.759 481.99L357 505ZM307.5 540L320.843 575.581L307.5 540ZM170.5 540L155.674 574.989C155.843 575.06 156.012 575.13 156.182 575.199L170.5 540ZM118.5 508L93.2943 536.437C93.3999 536.531 93.506 536.624 93.6126 536.716L118.5 508ZM85.5 465.5L63.4129 434.578C48.4022 445.3 43.26 465.254 51.2189 481.895L85.5 465.5ZM152 418L184.224 397.86C178.667 388.969 169.684 382.769 159.399 380.727C149.115 378.686 138.445 380.984 129.913 387.078L152 418ZM177 451L149.608 477.338L149.608 477.338L177 451ZM203.5 470.5L187.498 504.966C187.84 505.125 188.184 505.279 188.531 505.428L203.5 470.5ZM256 473.5L269.343 509.081C269.72 508.939 270.096 508.791 270.469 508.638L256 473.5ZM268.5 464L300.118 485.079C300.373 484.696 300.622 484.308 300.863 483.916L268.5 464ZM263.5 429.5L238.358 457.994C238.947 458.513 239.551 459.014 240.17 459.495L263.5 429.5ZM239.5 415.5L224.804 450.543L224.804 450.543L239.5 415.5ZM203 401L189.359 436.467C189.397 436.482 189.434 436.496 189.472 436.511L203 401ZM173.5 387.5L156.098 421.281L156.098 421.281L173.5 387.5ZM141.5 366L116.613 394.716C116.768 394.85 116.924 394.984 117.081 395.115L141.5 366ZM116.5 334L150.127 316.302L150.127 316.302L116.5 334ZM123 241L92.6 218.2L92.6 218.2L123 241ZM168.5 205.5L152.687 170.946C152.612 170.981 152.538 171.015 152.463 171.05L168.5 205.5ZM300.5 202.5L285.785 237.535C285.985 237.619 286.186 237.702 286.387 237.782L300.5 202.5ZM342 229.5L314.732 255.966C314.864 256.102 314.996 256.236 315.13 256.37L342 229.5ZM370 265.5L388.532 298.675C397.465 293.684 404.008 285.303 406.681 275.425C409.354 265.548 407.93 255.01 402.732 246.197L370 265.5ZM203.5 138V176H273V138V100H203.5V138ZM273 138L235.034 136.401L231.034 231.401L269 233L306.966 234.599L310.966 139.599L273 138ZM269 233V195H207.5V233V271H269V233ZM207.5 233L245.466 231.401L241.466 136.401L203.5 138L165.534 139.599L169.534 234.599L207.5 233ZM207.5 514V552H268.5V514V476H207.5V514ZM268.5 514L230.538 515.706L234.538 604.706L272.5 603L310.462 601.294L306.462 512.294L268.5 514ZM272.5 603V565H203.5V603V641H272.5V603ZM203.5 603L241.462 604.706L245.462 515.706L207.5 514L169.538 512.294L165.538 601.294L203.5 603ZM297.5 306L331.252 288.542C325.068 276.586 317.816 265.602 309.245 256.079L281 281.5L252.755 306.921C256.184 310.731 259.932 316.081 263.748 323.458L297.5 306ZM281 281.5L309.852 256.77C301.039 246.489 290.452 237.698 277.837 231.691L261.5 266L245.163 300.309C246.548 300.969 248.961 302.511 252.148 306.23L281 281.5ZM261.5 266L278.494 232.012C266.397 225.963 253.392 223 240 223V261V299C241.942 299 243.27 299.37 244.506 299.988L261.5 266ZM240 261V223C228.18 223 214.919 224.91 202.618 231.471L220.5 265L238.382 298.529C237.167 299.177 236.492 299.28 236.761 299.225C237.048 299.166 238.06 299 240 299V261ZM220.5 265L204.43 230.565C193.791 235.53 183.607 243.473 176.676 255.353L209.5 274.5L242.324 293.647C241.281 295.435 240.03 296.854 238.838 297.884C237.686 298.879 236.808 299.324 236.57 299.435L220.5 265ZM209.5 274.5L176.676 255.353C170.684 265.625 168 276.826 168 288H206H244C244 288.476 243.941 289.322 243.659 290.412C243.372 291.518 242.918 292.628 242.324 293.647L209.5 274.5ZM206 288H168C168 309.266 177.572 327.812 194.649 340.232L217 309.5L239.351 278.768C239.895 279.164 241.367 280.447 242.579 282.817C243.797 285.197 244 287.201 244 288H206ZM217 309.5L194.649 340.232C206.105 348.563 219.63 354.765 233.983 359.55L246 323.5L258.017 287.45C248.37 284.235 242.562 281.103 239.351 278.768L217 309.5ZM246 323.5L234.277 359.646C245.919 363.422 258.479 367.87 271.972 373.011L285.5 337.5L299.028 301.989C284.521 296.463 270.748 291.578 257.723 287.354L246 323.5ZM285.5 337.5L272.661 373.265C283.354 377.104 292.706 381.627 300.86 386.724L321 354.5L341.14 322.276C327.961 314.039 313.646 307.229 298.339 301.735L285.5 337.5ZM321 354.5L301.6 387.174C309.004 391.571 315.277 396.759 320.598 402.746L349 377.5L377.402 352.254C366.723 340.241 354.329 330.096 340.4 321.826L321 354.5ZM349 377.5L321.608 403.838C326.2 408.614 329.795 414.276 332.378 421.231L368 408L403.622 394.769C397.539 378.391 388.466 363.719 376.392 351.162L349 377.5ZM368 408L332.718 422.113C335.278 428.512 337 436.918 337 448H375H413C413 429.082 410.056 410.821 403.282 393.887L368 408ZM375 448H337C337 463.134 333.093 473.72 326.833 481.893L357 505L387.167 528.107C404.907 504.946 413 477.532 413 448H375ZM357 505L326.759 481.99C320.166 490.655 310.026 498.469 294.157 504.419L307.5 540L320.843 575.581C347.64 565.531 370.501 550.012 387.242 528.01L357 505ZM307.5 540L294.157 504.419C278.033 510.466 257.738 514 232.5 514V552V590C264.595 590 294.301 585.534 320.843 575.581L307.5 540ZM232.5 552V514C215.639 514 199.844 510.913 184.818 504.801L170.5 540L156.182 575.199C180.49 585.087 206.027 590 232.5 590V552ZM170.5 540L185.326 505.011C169.042 498.112 155.162 489.489 143.387 479.284L118.5 508L93.6126 536.716C111.838 552.511 132.625 565.222 155.674 574.989L170.5 540ZM118.5 508L143.706 479.563C132.262 469.419 124.614 459.211 119.781 449.105L85.5 465.5L51.2189 481.895C61.0522 502.456 75.405 520.581 93.2943 536.437L118.5 508ZM85.5 465.5L107.587 496.422L174.087 448.922L152 418L129.913 387.078L63.4129 434.578L85.5 465.5ZM152 418L119.776 438.14C129.102 453.062 138.998 466.303 149.608 477.338L177 451L204.392 424.662C198.336 418.364 191.564 409.605 184.224 397.86L152 418ZM177 451L149.608 477.338C160.662 488.834 173.244 498.348 187.498 504.966L203.5 470.5L219.502 436.034C215.089 433.985 210.004 430.499 204.392 424.662L177 451ZM203.5 470.5L188.531 505.428C203.247 511.734 218.948 514.5 235 514.5V476.5V438.5C227.718 438.5 222.419 437.266 218.469 435.572L203.5 470.5ZM235 476.5V514.5C246.094 514.5 258.123 513.288 269.343 509.081L256 473.5L242.657 437.919C243.095 437.755 242.777 437.932 241.376 438.132C240 438.328 237.92 438.5 235 438.5V476.5ZM256 473.5L270.469 508.638C281.21 504.215 292.243 496.891 300.118 485.079L268.5 464L236.882 442.921C239.424 439.109 242.123 438.118 241.531 438.362L256 473.5ZM268.5 464L300.863 483.916C308.02 472.285 310.5 459.653 310.5 448H272.5H234.5C234.5 449.014 234.313 447.048 236.137 444.084L268.5 464ZM272.5 448H310.5C310.5 428.725 302.179 411.443 286.83 399.505L263.5 429.5L240.17 459.495C239.085 458.651 237.387 456.938 236.079 454.249C234.776 451.57 234.5 449.241 234.5 448H272.5ZM263.5 429.5L288.642 401.006C278.762 392.289 266.684 385.694 254.196 380.457L239.5 415.5L224.804 450.543C232.982 453.973 236.905 456.711 238.358 457.994L263.5 429.5ZM239.5 415.5L254.196 380.457C243.372 375.918 230.798 370.926 216.528 365.489L203 401L189.472 436.511C203.202 441.741 214.961 446.416 224.804 450.543L239.5 415.5ZM203 401L216.641 365.533C209.598 362.824 201.054 358.949 190.902 353.719L173.5 387.5L156.098 421.281C167.946 427.385 179.068 432.509 189.359 436.467L203 401ZM173.5 387.5L190.902 353.719C182.62 349.452 174.285 343.901 165.919 336.885L141.5 366L117.081 395.115C129.381 405.432 142.38 414.214 156.098 421.281L173.5 387.5ZM141.5 366L166.387 337.284C160.243 331.959 154.772 325.128 150.127 316.302L116.5 334L82.8731 351.698C91.5612 368.206 102.757 382.708 116.613 394.716L141.5 366ZM116.5 334L150.127 316.302C146.878 310.129 144.5 301.455 144.5 289H106.5H68.5C68.5 311.212 72.7887 332.538 82.8731 351.698L116.5 334ZM106.5 289H144.5C144.5 280.381 147.03 272.294 153.4 263.8L123 241L92.6 218.2C76.9704 239.039 68.5 262.952 68.5 289H106.5ZM123 241L153.4 263.8C160.074 254.901 169.948 246.742 184.537 239.95L168.5 205.5L152.463 171.05C128.386 182.258 107.926 197.765 92.6 218.2L123 241ZM168.5 205.5L184.313 240.054C198.177 233.709 215.284 230 236.5 230V192V154C206.382 154 178.156 159.291 152.687 170.946L168.5 205.5ZM236.5 192V230C259.485 230 275.347 233.151 285.785 237.535L300.5 202.5L315.215 167.465C292.319 157.849 265.515 154 236.5 154V192ZM300.5 202.5L286.387 237.782C298.774 242.737 307.925 248.953 314.732 255.966L342 229.5L369.268 203.034C354.075 187.381 335.559 175.596 314.613 167.218L300.5 202.5ZM342 229.5L315.13 256.37C323.935 265.175 331.278 274.647 337.268 284.803L370 265.5L402.732 246.197C393.389 230.353 382.065 215.825 368.87 202.63L342 229.5ZM370 265.5L351.468 232.325L278.968 272.825L297.5 306L316.032 339.175L388.532 298.675L370 265.5Z" fill="#3C85FF" mask="url(#path-3-outside-1_1001_80)"/>
</svg>
